<?xml version="1.0" encoding="UTF-8" standalone="no"?>
<!-- Created with Inkscape (http://www.inkscape.org/) -->

<svg
   version="1.1"
   id="svg2"
   xml:space="preserve"
   width="330.89334"
   height="349.73334"
   viewBox="0 0 330.89334 349.73334" xmlns:inkscape="http://www.inkscape.org/namespaces/inkscape"
   xmlns:sodipodi="http://sodipodi.sourceforge.net/DTD/sodipodi-0.dtd"
   xmlns="http://www.w3.org/2000/svg"
   xmlns:svg="http://www.w3.org/2000/svg"><defs
     id="defs6"><clipPath
       clipPathUnits="userSpaceOnUse"
       id="clipPath18"><path
         d="m 1624.77,1119.04 0.48,0.21 0.48,0.13 -0.96,-0.34"
         id="path16" /></clipPath><linearGradient
       x1="0"
       y1="0"
       x2="1"
       y2="0"
       gradientUnits="userSpaceOnUse"
       gradientTransform="matrix(0.958822,0,0,-0.958822,1624.77,1119.21)"
       spreadMethod="pad"
       id="linearGradient24"><stop
         style="stop-opacity:1;stop-color:#a09f9f"
         offset="0"
         id="stop20" /><stop
         style="stop-opacity:1;stop-color:#dbdbd9"
         offset="1"
         id="stop22" /></linearGradient><clipPath
       clipPathUnits="userSpaceOnUse"
       id="clipPath34"><path
         d="m 1662.64,1075.3 0.48,0.2 0.48,0.14 -0.96,-0.34"
         id="path32" /></clipPath><linearGradient
       x1="0"
       y1="0"
       x2="1"
       y2="0"
       gradientUnits="userSpaceOnUse"
       gradientTransform="matrix(0.955323,0,0,-0.955323,1662.64,1075.47)"
       spreadMethod="pad"
       id="linearGradient40"><stop
         style="stop-opacity:1;stop-color:#a09f9f"
         offset="0"
         id="stop36" /><stop
         style="stop-opacity:1;stop-color:#dbdbd9"
         offset="1"
         id="stop38" /></linearGradient><clipPath
       clipPathUnits="userSpaceOnUse"
       id="clipPath50"><path
         d="m 1700.57,1031.56 0.48,0.2 0.48,0.14 -0.96,-0.34"
         id="path48" /></clipPath><linearGradient
       x1="0"
       y1="0"
       x2="1"
       y2="0"
       gradientUnits="userSpaceOnUse"
       gradientTransform="matrix(0.958822,0,0,-0.958822,1700.57,1031.73)"
       spreadMethod="pad"
       id="linearGradient56"><stop
         style="stop-opacity:1;stop-color:#a09f9f"
         offset="0"
         id="stop52" /><stop
         style="stop-opacity:1;stop-color:#dbdbd9"
         offset="1"
         id="stop54" /></linearGradient><clipPath
       clipPathUnits="userSpaceOnUse"
       id="clipPath66"><path
         d="m 1738.44,987.82 0.47,0.2 0.48,0.14 -0.95,-0.34"
         id="path64" /></clipPath><linearGradient
       x1="0"
       y1="0"
       x2="1"
       y2="0"
       gradientUnits="userSpaceOnUse"
       gradientTransform="matrix(0.955323,0,0,-0.955323,1738.44,987.99)"
       spreadMethod="pad"
       id="linearGradient72"><stop
         style="stop-opacity:1;stop-color:#a09f9f"
         offset="0"
         id="stop68" /><stop
         style="stop-opacity:1;stop-color:#dbdbd9"
         offset="1"
         id="stop70" /></linearGradient></defs><g
     id="g8" transform="matrix(1.3333333,0,0,-1.3333333,0,349.73333)"><g
       id="g10"
       transform="scale(0.1)"><g
         id="g12"><g
           id="g14"
           clip-path="url(#clipPath18)"><path
             d="m 1624.77,1119.04 0.48,0.21 0.48,0.13 -0.96,-0.34"
             style="fill:url(#linearGradient24);fill-opacity:1;fill-rule:nonzero;stroke:none"
             id="path26" /></g></g><g
         id="g28"><g
           id="g30"
           clip-path="url(#clipPath34)"><path
             d="m 1662.64,1075.3 0.48,0.2 0.48,0.14 -0.96,-0.34"
             style="fill:url(#linearGradient40);fill-opacity:1;fill-rule:nonzero;stroke:none"
             id="path42" /></g></g><g
         id="g44"><g
           id="g46"
           clip-path="url(#clipPath50)"><path
             d="m 1700.57,1031.56 0.48,0.2 0.48,0.14 -0.96,-0.34"
             style="fill:url(#linearGradient56);fill-opacity:1;fill-rule:nonzero;stroke:none"
             id="path58" /></g></g><g
         id="g60"><g
           id="g62"
           clip-path="url(#clipPath66)"><path
             d="m 1738.44,987.82 0.47,0.2 0.48,0.14 -0.95,-0.34"
             style="fill:url(#linearGradient72);fill-opacity:1;fill-rule:nonzero;stroke:none"
             id="path74" /></g></g><path
         d="m 2388.96,2320.23 c -129.86,232.04 -347.41,357.39 -486.01,279.82 -15.11,-8.41 -28.3,-19.28 -40.26,-31.58 l -716.75,-561.95 -1.71,-1.23 -0.68,-0.54 0.06,-0.07 c -45.58,-37.52 -72.17,-97.94 -80.17,-170.59 39.37,29.93 76.21,64.52 125.62,74.97 44.5,9.44 96.03,-17.83 132.05,-41.28 99.86,-65.07 183.85,-161.09 230.87,-271.2 41.9,-98.21 77.31,-246.66 28.3,-348.7 -13.67,-28.37 -46.34,-59.87 -82.15,-83.11 31.03,-6.36 61.1,-7.38 89.19,-1.78 1.1,0.61 5.06,2.73 12.1,6.36 4.03,2.18 9.02,4.78 14.83,7.92 5.2,4.1 11.21,8.75 17.84,14.01 12.98,10.8 25.83,27.07 37.11,47.37 9.77,21.26 18.25,46.2 22.42,74.77 3.96,28.5 4.58,59.94 1.64,92.95 -1.44,16.47 -3.76,33.35 -7.11,50.31 -2.8,16.6 -8.95,33.69 -13.81,51.25 -9.36,35.27 -23.3,70.33 -37.31,105.74 -14.63,35.26 -31.92,69.92 -51.4,103.27 -19.82,33.15 -41.28,65.34 -65.75,94.39 -23.64,29.66 -50.37,55.9 -77.44,79.76 -27.88,22.76 -55.77,44.08 -84.88,59.8 -28.64,15.99 -58.03,29.05 -85.16,35.61 -28.85,7.04 -54.07,8.41 -77.16,4.03 -22.56,-4.65 -40.53,-15.38 -52.9,-26.65 -12.44,-11.35 -20.1,-22.63 -24.47,-30.62 -4.45,-8.07 -6.02,-12.78 -6.02,-12.78 0,0 1.03,4.85 4.65,13.39 3.62,8.48 9.77,21.12 21.94,33.9 11.96,12.86 30.14,25.98 54.26,33.01 23.65,6.97 53.79,7.45 82.5,1.44 30.69,-5.81 60.9,-17.7 92.06,-33.01 31.24,-14.97 61.65,-35.48 91.18,-58.85 14.21,-12.37 29.32,-24.26 42.65,-38.34 l 20.7,-20.71 19.21,-22.35 c 25.77,-30.07 48.39,-63.36 69.17,-97.6 20.02,-34.72 37.52,-70.74 52.35,-107.17 8.34,-17.84 13.4,-36.77 19.96,-54.88 6.63,-18.11 11.34,-36.5 16.06,-54.54 4.3,-18.18 10.59,-35.4 12.71,-54.13 2.6,-18.04 4.17,-35.68 4.79,-52.97 1.29,-34.51 -0.96,-67.25 -6.63,-96.98 -5.54,-29.94 -16.75,-55.91 -28.91,-77.23 -13.74,-20.58 -28.57,-36.43 -42.93,-46.48 -7.31,-4.85 -13.8,-9.23 -19.54,-12.65 -6.36,-2.52 -11.69,-4.64 -16,-6.35 -6.35,-2.53 -10.52,-4.17 -12.23,-4.85 18.11,3.69 35.47,9.7 51.74,18.79 7.86,4.44 15.17,9.57 22.21,15.04 l 0.07,-0.07 1.09,0.82 1.85,1.5 c 46.88,37.25 634.6,500.17 727.55,573.36 3.01,2.26 6.01,4.52 8.88,6.98 2.26,1.77 3.83,3.07 3.83,3.07 l -0.2,0.34 c 106.75,96.44 103.13,324.58 -15.86,537.27"
         style="fill:#ffffff;fill-opacity:1;fill-rule:nonzero;stroke:none"
         id="path76" /><path
         d="m 1586.84,1162.79 0.96,0.34 -0.48,-0.14 z"
         style="fill:#ffffff;fill-opacity:1;fill-rule:nonzero;stroke:none"
         id="path78" /><path
         d="M 427.48,420.68 C 484.07,461.34 580.234,530.512 693.348,611.84 729.57,756.602 705.441,920.16 604.973,1036 537.789,1113.44 449.281,1145.02 351.82,1155.4 241.371,1052.82 148.078,966.148 95.8594,917.629 219.906,944.422 340.406,804.719 389.547,702.059 c 35.336,-73.68 60.484,-168.821 44.219,-250.899 -1.504,-7.648 -3.485,-18.519 -6.286,-30.48"
         style="fill:#ffffff;fill-opacity:1;fill-rule:nonzero;stroke:none"
         id="path80" /><path
         d="m 1169.86,1235.85 c 86.18,0 141.96,-62.88 130.75,-187.41 150.09,107.85 244.27,175.51 246.05,176.68 81.6,53.78 50.84,289.52 -39.24,426.14 -90.08,136.62 -280.29,293.48 -361.89,239.76 -4.99,-3.28 -447.124,-413.71 -767.944,-711.63 107.375,-14.83 208.391,-57.07 269.832,-153.64 C 725.676,902.789 750.281,768.77 721.367,632 823,705.07 936.047,786.398 1045.19,864.789 c -1.91,274.891 -15.64,371.061 124.67,371.061"
         style="fill:#ffffff;fill-opacity:1;fill-rule:nonzero;stroke:none"
         id="path82" /><path
         d="M 66.9492,886.941 C -18.3477,839.23 -22.7227,684.77 57.1758,541.922 137.07,399.078 271.035,321.922 356.262,369.691 c 6.218,3.418 11.894,7.661 17.222,12.168 0,0 1.914,1.36 5.055,3.621 l 0.344,1.571 c 62.539,60.898 59.187,198.89 -12.778,327.648 C 286.137,857.551 152.246,934.641 66.9492,886.941"
         style="fill:#ffffff;fill-opacity:1;fill-rule:nonzero;stroke:none"
         id="path84" /><path
         d="m 1169.86,1016.32 c -23.03,0 -41.69,27.61 -41.69,61.65 0,34.1 18.66,61.71 41.69,61.71 23.03,0 41.69,-27.61 41.69,-61.71 0,-34.04 -18.66,-61.65 -41.69,-61.65 z m 0,194.58 c -60.35,0 -109.22,-48.94 -109.22,-109.29 V 136.289 c 0,-60.3476 48.87,-109.2187 109.22,-109.2187 60.35,0 109.29,48.8711 109.29,109.2187 v 965.321 c 0,60.35 -48.94,109.29 -109.29,109.29"
         style="fill:#ffffff;fill-opacity:1;fill-rule:nonzero;stroke:none"
         id="path86" /><path
         d="m 540.73,26.8594 c 33.422,-34.78909 88.715,-35.94924 123.5,-2.5196 l 379.94,364.5512 v 242.16 L 543.258,150.43 C 508.469,117.012 507.305,61.6484 540.73,26.8594"
         style="fill:#ffffff;fill-opacity:1;fill-rule:nonzero;stroke:none"
         id="path88" /><path
         d="M 1300.33,645.809 V 403.59 L 1695.58,24.3398 c 34.86,-33.42964 90.15,-32.26949 123.51,2.5196 33.42,34.789 32.32,90.1526 -2.53,123.5706 l -516.23,495.379"
         style="fill:#ffffff;fill-opacity:1;fill-rule:nonzero;stroke:none"
         id="path90" /></g></g></svg>
